<svg width="105.99999999999999" height="105.99999999999999" xmlns="http://www.w3.org/2000/svg" fill="none">

 <g>
  <title>Layer 1</title>
  <path id="svg_1" fill="#F5C243" d="m66.56726,97.54939c22.4448,-0.9111 39.8975,-19.7826 38.9785,-42.146c-0.929,-22.5926 -20.1291,-40.42494 -42.3828,-38.83837c-3.7848,0.27242 -19.2003,7.35347 -28.0407,13.01977c-1.2354,0.7917 -1.5926,2.4314 -0.798,3.6623c0.7946,1.2309 2.4401,1.5869 3.6754,0.7952c8.1325,-5.2124 22.9119,-12.0014 25.5447,-12.1909c19.2067,-1.36932 35.8788,14.115 36.6874,33.7688c0.798,19.4383 -14.3718,35.8416 -33.881,36.6335c-1.4676,0.0596 -2.6088,1.2934 -2.549,2.7557c0.0598,1.4624 1.2979,2.5995 2.7655,2.54z"/>
  <path id="svg_2" fill="#F5C243" d="m38.95616,11.74831c-22.446,0.91112 -39.89891,19.78378 -38.97884,42.14968c0.92738,22.59 20.12894,40.423 42.38334,38.8346c3.7794,-0.2674 19.1965,-7.3476 28.0406,-13.0162c1.2353,-0.7917 1.5925,-2.4314 0.7979,-3.6623c-0.7946,-1.2309 -2.4401,-1.5869 -3.6754,-0.7952c-8.1338,5.2134 -22.9144,12.0012 -25.5415,12.1871c-19.2106,1.3712 -35.88366,-14.1135 -36.6904,-33.7648c-0.79974,-19.441 14.3705,-35.84529 33.8808,-36.63724c1.4676,-0.05957 2.6088,-1.29334 2.549,-2.75569c-0.0598,-1.46235 -1.2979,-2.59952 -2.7655,-2.53995z"/>
  <path id="svg_3" fill="#F5C243" d="m58.13386,32.76959l-22.7653,12.5133c-1.2861,0.707 -1.7536,2.3189 -1.0441,3.6004c0.7095,1.2815 2.3272,1.7473 3.6133,1.0404l22.7653,-12.5134c1.2861,-0.7069 1.7535,-2.3188 1.0441,-3.6004c-0.7095,-1.2815 -2.3272,-1.7473 -3.6133,-1.0403z"/>
  <path id="svg_4" fill="#F5C243" d="m68.45916,42.55899l-32.7171,17.93c-1.287,0.7053 -1.7565,2.3166 -1.0487,3.599c0.7078,1.2824 2.325,1.7503 3.6119,1.045l32.7172,-17.93c1.287,-0.7054 1.7565,-2.3167 1.0486,-3.5991c-0.7078,-1.2824 -2.3249,-1.7502 -3.6119,-1.0449z"/>
  <path id="svg_5" fill="#F5C243" d="m67.14456,58.32999l-22.7689,12.5116c-1.2862,0.7067 -1.7538,2.3186 -1.0445,3.6002c0.7093,1.2816 2.3269,1.7476 3.6131,1.0408l22.7689,-12.5116c1.2861,-0.7067 1.7538,-2.3186 1.0445,-3.6002c-0.7093,-1.2816 -2.3269,-1.7476 -3.6131,-1.0408z"/>
 </g>
</svg>