<svg id="visual" viewBox="0 0 900 300" width="900" height="300" xmlns="http://www.w3.org/2000/svg" xmlns:xlink="http://www.w3.org/1999/xlink" version="1.1"><g stroke-width="1" stroke-linejoin="bevel"><path d="M462 109L476 94L397 91Z" fill="#002d60" stroke="#002d60"></path><path d="M555 145L509 64L476 94Z" fill="#00244b" stroke="#00244b"></path><path d="M476 94L459 0L397 91Z" fill="#001b36" stroke="#001b36"></path><path d="M509 64L459 0L476 94Z" fill="#001122" stroke="#001122"></path><path d="M459 0L393 0L397 91Z" fill="#003e8c" stroke="#003e8c"></path><path d="M335 188L392 182L397 91Z" fill="#001b36" stroke="#001b36"></path><path d="M397 91L392 182L462 109Z" fill="#0046a2" stroke="#0046a2"></path><path d="M462 109L555 145L476 94Z" fill="#005ee7" stroke="#005ee7"></path><path d="M461 251L555 145L462 109Z" fill="#0056d0" stroke="#0056d0"></path><path d="M628 44L564 0L509 64Z" fill="#0056d0" stroke="#0056d0"></path><path d="M509 64L564 0L459 0Z" fill="#003676" stroke="#003676"></path><path d="M393 0L294 33L397 91Z" fill="#003e8c" stroke="#003e8c"></path><path d="M393 0L306 0L294 33Z" fill="#005ee7" stroke="#005ee7"></path><path d="M294 33L335 188L397 91Z" fill="#003676" stroke="#003676"></path><path d="M294 33L317 191L335 188Z" fill="#0046a2" stroke="#0046a2"></path><path d="M367 300L461 251L392 182Z" fill="#0066ff" stroke="#0066ff"></path><path d="M336 265L392 182L335 188Z" fill="#003e8c" stroke="#003e8c"></path><path d="M392 182L461 251L462 109Z" fill="#00244b" stroke="#00244b"></path><path d="M555 145L628 44L509 64Z" fill="#003676" stroke="#003676"></path><path d="M461 251L526 252L555 145Z" fill="#001b36" stroke="#001b36"></path><path d="M555 145L667 137L628 44Z" fill="#0046a2" stroke="#0046a2"></path><path d="M628 44L630 0L564 0Z" fill="#004eb9" stroke="#004eb9"></path><path d="M628 44L637 0L630 0Z" fill="#003e8c" stroke="#003e8c"></path><path d="M317 191L336 265L335 188Z" fill="#0066ff" stroke="#0066ff"></path><path d="M461 251L444 300L526 252Z" fill="#003676" stroke="#003676"></path><path d="M191 0L215 53L294 33Z" fill="#001b36" stroke="#001b36"></path><path d="M294 33L212 141L317 191Z" fill="#004eb9" stroke="#004eb9"></path><path d="M317 191L228 248L336 265Z" fill="#001b36" stroke="#001b36"></path><path d="M596 244L639 178L555 145Z" fill="#001122" stroke="#001122"></path><path d="M628 44L695 57L637 0Z" fill="#003e8c" stroke="#003e8c"></path><path d="M367 300L444 300L461 251Z" fill="#0046a2" stroke="#0046a2"></path><path d="M526 252L596 244L555 145Z" fill="#003676" stroke="#003676"></path><path d="M556 300L596 244L526 252Z" fill="#003e8c" stroke="#003e8c"></path><path d="M215 53L212 141L294 33Z" fill="#002d60" stroke="#002d60"></path><path d="M258 300L367 300L336 265Z" fill="#004eb9" stroke="#004eb9"></path><path d="M336 265L367 300L392 182Z" fill="#001b36" stroke="#001b36"></path><path d="M719 185L667 137L639 178Z" fill="#00244b" stroke="#00244b"></path><path d="M639 178L667 137L555 145Z" fill="#0046a2" stroke="#0046a2"></path><path d="M306 0L191 0L294 33Z" fill="#005ee7" stroke="#005ee7"></path><path d="M153 116L181 161L212 141Z" fill="#003e8c" stroke="#003e8c"></path><path d="M444 300L556 300L526 252Z" fill="#001b36" stroke="#001b36"></path><path d="M667 137L695 57L628 44Z" fill="#001122" stroke="#001122"></path><path d="M153 116L212 141L215 53Z" fill="#001b36" stroke="#001b36"></path><path d="M212 141L228 248L317 191Z" fill="#001b36" stroke="#001b36"></path><path d="M181 161L228 248L212 141Z" fill="#001122" stroke="#001122"></path><path d="M752 133L716 41L695 57Z" fill="#00244b" stroke="#00244b"></path><path d="M695 57L716 41L637 0Z" fill="#0056d0" stroke="#0056d0"></path><path d="M191 0L153 116L215 53Z" fill="#002d60" stroke="#002d60"></path><path d="M181 161L162 197L228 248Z" fill="#003676" stroke="#003676"></path><path d="M228 248L258 300L336 265Z" fill="#005ee7" stroke="#005ee7"></path><path d="M634 300L690 221L596 244Z" fill="#002d60" stroke="#002d60"></path><path d="M596 244L690 221L639 178Z" fill="#003e8c" stroke="#003e8c"></path><path d="M667 137L752 133L695 57Z" fill="#004eb9" stroke="#004eb9"></path><path d="M556 300L634 300L596 244Z" fill="#0066ff" stroke="#0066ff"></path><path d="M153 116L162 197L181 161Z" fill="#001122" stroke="#001122"></path><path d="M228 248L202 300L258 300Z" fill="#0066ff" stroke="#0066ff"></path><path d="M803 191L719 185L772 300Z" fill="#005ee7" stroke="#005ee7"></path><path d="M690 221L719 185L639 178Z" fill="#005ee7" stroke="#005ee7"></path><path d="M805 74L747 0L716 41Z" fill="#002d60" stroke="#002d60"></path><path d="M716 41L747 0L637 0Z" fill="#001b36" stroke="#001b36"></path><path d="M719 185L752 133L667 137Z" fill="#005ee7" stroke="#005ee7"></path><path d="M190 300L202 300L228 248Z" fill="#003676" stroke="#003676"></path><path d="M162 197L190 300L228 248Z" fill="#004eb9" stroke="#004eb9"></path><path d="M191 0L108 0L153 116Z" fill="#001122" stroke="#001122"></path><path d="M153 116L76 162L162 197Z" fill="#0046a2" stroke="#0046a2"></path><path d="M162 197L107 250L190 300Z" fill="#005ee7" stroke="#005ee7"></path><path d="M108 0L53 70L153 116Z" fill="#0046a2" stroke="#0046a2"></path><path d="M634 300L691 300L690 221Z" fill="#00244b" stroke="#00244b"></path><path d="M719 185L803 191L752 133Z" fill="#003676" stroke="#003676"></path><path d="M803 191L805 74L752 133Z" fill="#003676" stroke="#003676"></path><path d="M752 133L805 74L716 41Z" fill="#001b36" stroke="#001b36"></path><path d="M53 70L76 162L153 116Z" fill="#002d60" stroke="#002d60"></path><path d="M76 162L107 250L162 197Z" fill="#001b36" stroke="#001b36"></path><path d="M107 0L53 70L108 0Z" fill="#001122" stroke="#001122"></path><path d="M772 300L719 185L690 221Z" fill="#0056d0" stroke="#0056d0"></path><path d="M691 300L772 300L690 221Z" fill="#004eb9" stroke="#004eb9"></path><path d="M900 116L860 0L805 74Z" fill="#002d60" stroke="#002d60"></path><path d="M805 74L860 0L747 0Z" fill="#0046a2" stroke="#0046a2"></path><path d="M900 116L805 74L803 191Z" fill="#0046a2" stroke="#0046a2"></path><path d="M53 70L0 94L76 162Z" fill="#001b36" stroke="#001b36"></path><path d="M0 189L61 300L107 250Z" fill="#004eb9" stroke="#004eb9"></path><path d="M0 0L0 94L53 70Z" fill="#005ee7" stroke="#005ee7"></path><path d="M0 189L107 250L76 162Z" fill="#0066ff" stroke="#0066ff"></path><path d="M107 250L61 300L190 300Z" fill="#003676" stroke="#003676"></path><path d="M107 0L0 0L53 70Z" fill="#0056d0" stroke="#0056d0"></path><path d="M0 94L0 170L76 162Z" fill="#005ee7" stroke="#005ee7"></path><path d="M830 300L859 236L803 191Z" fill="#0046a2" stroke="#0046a2"></path><path d="M0 170L0 189L76 162Z" fill="#005ee7" stroke="#005ee7"></path><path d="M772 300L830 300L803 191Z" fill="#0046a2" stroke="#0046a2"></path><path d="M900 160L900 116L803 191Z" fill="#0066ff" stroke="#0066ff"></path><path d="M900 116L900 0L860 0Z" fill="#0056d0" stroke="#0056d0"></path><path d="M900 203L900 160L803 191Z" fill="#001122" stroke="#001122"></path><path d="M900 203L803 191L859 236Z" fill="#003676" stroke="#003676"></path><path d="M900 300L900 203L859 236Z" fill="#0046a2" stroke="#0046a2"></path><path d="M0 189L0 300L61 300Z" fill="#001122" stroke="#001122"></path><path d="M830 300L900 300L859 236Z" fill="#00244b" stroke="#00244b"></path></g></svg>